<?xml version="1.0" standalone="no"?>
<!DOCTYPE svg PUBLIC "-//W3C//DTD SVG 20010904//EN"
 "http://www.w3.org/TR/2001/REC-SVG-20010904/DTD/svg10.dtd">
<svg version="1.0" xmlns="http://www.w3.org/2000/svg"
 width="725.000000pt" height="725.000000pt" viewBox="0 0 725.000000 725.000000"
 preserveAspectRatio="xMidYMid meet">
<metadata>
Created by potrace 1.11, written by Peter Selinger 2001-2013
</metadata>
<g transform="translate(0.000000,725.000000) scale(0.100000,-0.100000)"
fill="#000000" stroke="none">
<path d="M2427 7228 c-9 -5 -12 -91 -12 -305 l0 -298 -543 -3 c-507 -2 -542
-3 -543 -20 0 -9 -1 -142 -1 -295 -1 -153 -5 -280 -10 -283 -5 -3 -159 -6
-342 -5 l-334 0 2 -604 1 -603 -245 0 c-135 -1 -273 -1 -307 -1 l-63 -1 0
-1198 0 -1199 300 0 c166 0 303 -3 307 -6 3 -3 6 -250 7 -548 l1 -542 337 0
c300 0 338 -2 342 -16 2 -9 3 -157 3 -329 l-2 -312 562 0 563 0 2 -327 3 -327
1165 0 1165 0 5 324 5 325 560 5 560 5 0 323 c0 278 2 323 15 326 8 2 162 4
343 3 212 -1 327 2 327 8 1 6 1 252 1 548 l0 537 22 1 c12 0 153 1 313 1 l291
0 0 1199 0 1199 -51 0 c-28 1 -169 1 -313 1 l-261 1 -1 571 c0 315 0 586 -1
604 l0 32 -307 0 c-170 0 -324 0 -343 1 l-35 0 0 300 0 300 -542 0 c-510 0
-543 1 -544 18 0 9 0 146 0 305 0 264 -1 287 -17 288 -136 5 -2377 2 -2385 -3z"/>
</g>
</svg>
